<svg xmlns="http://www.w3.org/2000/svg" viewBox="0 0 121.58 132.11"><defs><style>.cls-1{fill:#0f0c1a;}</style></defs><title>Asset 1</title><g id="Layer_2" data-name="Layer 2"><g id="Layer_1-2" data-name="Layer 1"><path class="cls-1" d="M118.91,56.1H105.17c-2.06,0-3.08-.94-3.08-2.81V18.1c0-1.42-.66-2.11-2-2.11H46a4.25,4.25,0,0,1-2-.43c-.56-.27-.84-.93-.84-2V2.67c0-1.31.28-2.08.84-2.32A5,5,0,0,1,46,0h65.77a19.84,19.84,0,0,1,5,.5,5.39,5.39,0,0,1,2.94,1.75,7.46,7.46,0,0,1,1.48,3.3,25.67,25.67,0,0,1,.42,5V53.29c0,1.87-.89,2.81-2.67,2.81"/><path class="cls-1" d="M2.67,76H16.41c2.05,0,3.08.94,3.08,2.81V114c0,1.42.66,2.11,2,2.11H75.59a4.38,4.38,0,0,1,2,.42c.56.28.83.94.83,2v10.93c0,1.31-.27,2.08-.83,2.32a5.19,5.19,0,0,1-2,.35H9.81a19.81,19.81,0,0,1-5-.5,5.45,5.45,0,0,1-2.95-1.75,7.56,7.56,0,0,1-1.47-3.3,25.67,25.67,0,0,1-.42-5V78.82C0,77,.89,76,2.67,76"/><path class="cls-1" d="M2.67,2H16.41c2.05,0,3.08.94,3.08,2.81V40c0,1.41.66,2.11,2,2.11H75.59a4.38,4.38,0,0,1,2,.42c.56.28.83.94.83,2V55.45c0,1.31-.27,2.07-.83,2.31a5,5,0,0,1-2,.36H9.81a19.81,19.81,0,0,1-5-.5,5.51,5.51,0,0,1-2.95-1.75,7.56,7.56,0,0,1-1.47-3.3,25.67,25.67,0,0,1-.42-5V4.83C0,3,.89,2,2.67,2"/><path class="cls-1" d="M118.91,132.11H105.17c-2.06,0-3.08-.94-3.08-2.81V94.11c0-1.42-.66-2.11-2-2.11H46a4.38,4.38,0,0,1-2-.42c-.56-.28-.84-.94-.84-2V78.68c0-1.31.28-2.08.84-2.32A5.19,5.19,0,0,1,46,76h65.77a19.84,19.84,0,0,1,5,.5,5.39,5.39,0,0,1,2.94,1.75,7.46,7.46,0,0,1,1.48,3.3,25.67,25.67,0,0,1,.42,5V129.3c0,1.87-.89,2.81-2.67,2.81"/></g></g></svg>